<svg id="Layer_1" data-name="Layer 1" xmlns="http://www.w3.org/2000/svg" viewBox="0 0 800 160"><defs><style>.cls-1{fill:none;stroke:#414042;stroke-miterlimit:10;stroke-width:2px;}.cls-1,.cls-2{opacity:0.95;}.cls-3{fill:#414042;}.cls-4{fill:#424142;}</style></defs><line class="cls-1" x1="355.91" y1="40" x2="355.91" y2="120"/><g class="cls-2"><path class="cls-3" d="M387.61,80.46H374.52V59.32h13.09V61.7H377.15v6.78h9.92v2.34h-9.92v7.27h10.46Z"/><path class="cls-3" d="M392,80.46V59.32h2.56L406,75.77h.24V59.32h2.6V80.46h-2.56L394.79,64.07h-.23V80.46Z"/><path class="cls-3" d="M419.34,80.46V61.7h-6.81V59.32h16.26V61.7H422V80.46Z"/><path class="cls-3" d="M435.12,80.46h-2.64V59.32h8.07c4.07,0,6.74,2.49,6.74,6.3A6,6,0,0,1,443,71.69l4.89,8.77h-3.09l-4.52-8.36h-5.2Zm0-10.71h5.2c2.71,0,4.24-1.45,4.24-4s-1.64-4-4.36-4h-5.08Z"/><path class="cls-3" d="M456.82,80.46v-9.1l-7.5-12h3L458,68.71h.24l5.7-9.39h3l-7.5,12v9.1Z"/><path class="cls-3" d="M471.29,74.94c.32,2.21,2.43,3.62,5.43,3.62,2.84,0,4.94-1.54,4.94-3.64,0-1.8-1.32-2.94-4.24-3.67l-2.71-.71c-3.82-1-5.48-2.69-5.48-5.69,0-3.59,3-6,7.48-6,4.08,0,7.13,2.43,7.35,5.84h-2.65c-.37-2.17-2.16-3.46-4.79-3.46-2.82,0-4.68,1.41-4.68,3.55,0,1.65,1.16,2.61,4.08,3.35l2.21.59c4.38,1.1,6.14,2.8,6.14,5.9,0,3.88-3.07,6.36-7.9,6.36-4.48,0-7.57-2.37-7.85-6Z"/><path class="cls-3" d="M493.84,80.46V61.7H487V59.32h16.26V61.7h-6.82V80.46Z"/><path class="cls-3" d="M524.76,69.88c0,6.76-3.63,11.08-9.67,11.08s-9.71-4.31-9.71-11.08,3.74-11,9.71-11S524.76,63.1,524.76,69.88Zm-16.67,0c0,5.25,2.61,8.65,7,8.65s7-3.4,7-8.65-2.63-8.62-7-8.62S508.09,64.6,508.09,69.88Z"/><path class="cls-3" d="M531.88,80.46h-2.63V59.32h8.07c4.07,0,6.74,2.49,6.74,6.3a6,6,0,0,1-4.25,6.07l4.89,8.77h-3.09l-4.53-8.36h-5.2Zm0-10.71h5.2c2.71,0,4.25-1.45,4.25-4s-1.64-4-4.36-4h-5.09Z"/><path class="cls-3" d="M561.75,80.46h-13.1V59.32h13.1V61.7H551.29v6.78h9.92v2.34h-9.92v7.27h10.46Z"/></g><g class="cls-2"><path class="cls-3" d="M378,97.89h-3.26l-.86,2.37h-.78l2.9-7.75h.73l2.9,7.75h-.77Zm-3-.63h2.82l-1.39-3.84h0Z"/><path class="cls-3" d="M383.53,97.51a2.27,2.27,0,0,0,4.53,0v-5h.74v5a3,3,0,0,1-6,0v-5h.73Z"/><path class="cls-3" d="M390.35,100.26V92.51h.73L395.62,99h0V92.51h.73v7.75h-.71l-4.56-6.47h0v6.47Z"/><path class="cls-3" d="M398,100.26V92.51h.73v7.75Z"/><path class="cls-3" d="M402.5,100.26l-2.9-7.75h.77l2.48,6.84h0l2.47-6.84h.78l-2.9,7.75Z"/><path class="cls-3" d="M411.71,100.26H407V92.51h4.68v.67h-3.95V96h3.75v.65h-3.75v3h3.95Z"/><path class="cls-3" d="M413.61,100.26h-.73V92.51h2.73a2.23,2.23,0,0,1,2.48,2.27A2.14,2.14,0,0,1,416.43,97l1.88,3.29h-.86l-1.78-3.17h-2.06Zm0-3.82h1.94a1.56,1.56,0,0,0,1.78-1.64,1.59,1.59,0,0,0-1.81-1.63h-1.91Z"/><path class="cls-3" d="M419.61,98.16c.08.93,1,1.56,2.17,1.56s2-.63,2-1.5-.5-1.16-1.65-1.45l-1-.24c-1.43-.37-2.07-1-2.07-2,0-1.25,1.13-2.14,2.65-2.14a2.4,2.4,0,0,1,2.66,2.12h-.73c-.07-.87-.85-1.45-1.95-1.45s-1.87.59-1.87,1.45c0,.66.49,1,1.62,1.34l.84.22c1.56.39,2.21,1,2.21,2.07,0,1.36-1.09,2.25-2.8,2.25s-2.76-.9-2.85-2.23Z"/><path class="cls-3" d="M429.86,97.89H426.6l-.86,2.37H425l2.9-7.75h.74l2.89,7.75h-.77Zm-3-.63h2.82l-1.39-3.84h0Z"/><path class="cls-3" d="M437,100.26H432.4V92.51h.73V99.6H437Z"/><path class="cls-3" d="M445,100.26h-4.68V92.51H445v.67h-3.95V96h3.75v.65h-3.75v3H445Z"/><path class="cls-3" d="M446.19,100.26V92.51h.72L451.46,99h0V92.51h.72v7.75h-.71L447,93.79h0v6.47Z"/><path class="cls-3" d="M455.73,100.26V93.18h-2.56v-.67H459v.67h-2.57v7.08Z"/><path class="cls-3" d="M460.7,100.26H460V92.51h2.74a2.23,2.23,0,0,1,2.48,2.27A2.15,2.15,0,0,1,463.53,97l1.88,3.29h-.86l-1.78-3.17H460.7Zm0-3.82h1.95a1.56,1.56,0,0,0,1.78-1.64,1.59,1.59,0,0,0-1.81-1.63H460.7Z"/><path class="cls-3" d="M468.33,100.26V96.91l-2.78-4.4h.84l2.29,3.68h0L471,92.51h.84l-2.78,4.4v3.35Z"/><path class="cls-3" d="M475.35,98.16c.08.93.95,1.56,2.17,1.56s2-.63,2-1.5-.5-1.16-1.65-1.45l-1-.24c-1.43-.37-2.07-1-2.07-2,0-1.25,1.13-2.14,2.65-2.14a2.4,2.4,0,0,1,2.66,2.12h-.74c-.07-.87-.84-1.45-1.94-1.45s-1.87.59-1.87,1.45c0,.66.48,1,1.62,1.34l.84.22c1.56.39,2.21,1,2.21,2.07,0,1.36-1.09,2.25-2.81,2.25s-2.76-.9-2.84-2.23Z"/><path class="cls-3" d="M483.3,100.26V93.18h-2.56v-.67h5.86v.67H484v7.08Z"/><path class="cls-3" d="M493.9,96.39c0,2.46-1.36,4-3.53,4s-3.51-1.54-3.51-4,1.35-4,3.51-4S493.9,93.94,493.9,96.39Zm-6.29,0c0,2,1.07,3.32,2.76,3.32s2.78-1.29,2.78-3.32-1.08-3.32-2.78-3.32S487.61,94.36,487.61,96.39Z"/><path class="cls-3" d="M495.87,100.26h-.73V92.51h2.73a2.23,2.23,0,0,1,2.49,2.27A2.15,2.15,0,0,1,498.7,97l1.88,3.29h-.86l-1.79-3.17h-2.06Zm0-3.82h1.94a1.57,1.57,0,0,0,1.79-1.64,1.59,1.59,0,0,0-1.81-1.63h-1.92Z"/><path class="cls-3" d="M506.31,100.26h-4.68V92.51h4.68v.67h-3.95V96h3.75v.65h-3.75v3h3.95Z"/><path class="cls-3" d="M509.85,100.26V92.51h.73v7.75Z"/><path class="cls-3" d="M512.16,100.26V92.51h.72L517.43,99h0V92.51h.73v7.75h-.71l-4.56-6.47h0v6.47Z"/><path class="cls-3" d="M521.7,100.26V93.18h-2.56v-.67H525v.67h-2.56v7.08Z"/><path class="cls-3" d="M530.62,100.26h-4.68V92.51h4.68v.67h-4V96h3.75v.65h-3.75v3h4Z"/><path class="cls-3" d="M532.52,100.26h-.73V92.51h2.73A2.23,2.23,0,0,1,537,94.78,2.14,2.14,0,0,1,535.34,97l1.88,3.29h-.86l-1.78-3.17h-2.06Zm0-3.82h1.94a1.56,1.56,0,0,0,1.78-1.64,1.59,1.59,0,0,0-1.81-1.63h-1.91Z"/><path class="cls-3" d="M538.27,100.26V92.51h4.6v.67H539v2.91h3.56v.66H539v3.51Z"/><path class="cls-3" d="M547.73,97.89h-3.25l-.86,2.37h-.78l2.9-7.75h.73l2.89,7.75h-.77Zm-3-.63h2.81l-1.39-3.84h0Z"/><path class="cls-3" d="M549.62,96.37c0-2.43,1.35-4,3.46-4A3,3,0,0,1,556.22,95h-.74a2.38,2.38,0,0,0-2.4-1.9c-1.64,0-2.7,1.29-2.7,3.3s1.06,3.34,2.7,3.34a2.28,2.28,0,0,0,2.4-1.74h.74a2.93,2.93,0,0,1-3.14,2.42C551,100.39,549.62,98.82,549.62,96.37Z"/><path class="cls-3" d="M562.05,100.26h-4.68V92.51h4.68v.67H558.1V96h3.75v.65H558.1v3h3.95Z"/></g><g id="SvgjsG3744" class="cls-2"><path class="cls-4" d="M283.78,62.14c-1.19-2.21-3.44-2.68-5-1.11L264.91,73.81c-.35.32-.59.63-.83.63H243.56c-2,0-3.56,2.84-3.56,5.52s1.66,5.53,3.56,5.53h20.88a.73.73,0,0,1,.47.15L278.8,99.05a2.84,2.84,0,0,0,2.13.79,3.54,3.54,0,0,0,2.85-2,6.14,6.14,0,0,0-.71-6.78L271.44,79.49l11.63-11C284.61,67.19,285,64.19,283.78,62.14Z"/><path class="cls-4" d="M336.44,74.44H315.92c-.24,0-.48-.31-.83-.63L301.2,60.88c-1.66-1.58-3.91-1-5,1.26a5.91,5.91,0,0,0,.83,6.78l11.63,11L297.05,91.48a5.88,5.88,0,0,0-.71,6.63,3.33,3.33,0,0,0,2.85,1.89,3,3,0,0,0,2.13-1l13.77-13.41c.11-.15.35-.15.47-.15h20.88c2,0,3.56-2.84,3.56-5.53S338.34,74.44,336.44,74.44Z"/></g></svg>